#!OML:ASF H:\Punching\Project 1\Capture day 1\Session 1\female.ASF
:FULLY-SPECIFIED
:DEGREES
1988
root 2.08213 15.7175 7.6308 14.3532 4.71086 -2.29784
lowerback -1.00783 0.788601 1.81299
upperback -6.46038 1.1687 1.07028
thorax -6.12021 0.521224 0.0472809
lowerneck -12.8859 -1.5795 5.62088
upperneck 28.1947 -3.72959 0.159848
head 11.1727 -1.06126 -1.39335
rclavicle 1.2452e-014 -2.38542e-015
rhumerus -34.6708 28.5496 -95.4504
rradius 82.6562
rwrist -25.4653
rhand -2.17121 -9.57477
rfingers 7.12502
rthumb 23.5092 -38.1582
lclavicle 1.2452e-014 -2.38542e-015
lhumerus -39.488 -42.9161 107.024
lradius 113.3
lwrist 3.6325
lhand -22.1438 9.31396
lfingers 7.12502
lthumb 4.26991 39.2509
rfemur -29.5671 -3.08928 13.9443
rtibia 35.2765
rfoot -14.464 -11.406
rtoes -11.8601
lfemur -13.2959 -8.03588 -17.8115
ltibia 21.5602
lfoot -20.5624 18.9911
ltoes 0.626894
1989
root 2.11086 15.7146 7.59454 14.5229 4.31174 -2.41817
lowerback -1.13119 0.767126 1.85524
upperback -6.44736 1.14028 1.14817
thorax -6.03692 0.507641 0.107627
lowerneck -13.0068 -1.42992 5.75541
upperneck 27.894 -3.47731 -0.0915654
head 11.0806 -0.97369 -1.47289
rclavicle -9.83674e-015 9.93923e-016
rhumerus -36.7486 27.5341 -96.613
rradius 81.5127
rwrist -25.6519
rhand -1.61523 -9.85789
rfingers 7.12502
rthumb 24.0424 -38.372
lclavicle -9.83674e-015 9.93923e-016
lhumerus -41.3831 -41.9685 107.864
lradius 112.888
lwrist 4.07206
lhand -22.0719 9.60781
lfingers 7.12502
lthumb 4.33932 39.5434
rfemur -29.3569 -3.64748 14.8845
rtibia 36.6316
rfoot -15.1313 -10.7616
rtoes -12.288
lfemur -13.8161 -7.99127 -17.8259
ltibia 22.1115
lfoot -20.8717 19.1608
ltoes 1.12623
1990
root 2.13744 15.7109 7.56016 14.7077 3.94016 -2.52531
lowerback -1.28216 0.732838 1.88598
upperback -6.42781 1.09284 1.21954
thorax -5.9311 0.485179 0.168617
lowerneck -13.1276 -1.27293 5.91769
upperneck 27.5663 -3.21644 -0.363545
head 10.9795 -0.882341 -1.56272
rclavicle -2.36989e-015 -9.93923e-016
rhumerus -38.6546 26.4495 -97.6084
rradius 80.3385
rwrist -25.7331
rhand -1.17667 -10.0608
rfingers 7.12502
rthumb 24.4629 -38.5187
lclavicle -2.36989e-015 -9.93923e-016
lhumerus -43.2409 -40.9441 108.615
lradius 112.445
lwrist 4.48176
lhand -21.9884 9.93793
lfingers 7.12502
lthumb 4.41995 39.8718
rfemur -29.1055 -4.17232 15.7775
rtibia 37.8722
rfoot -15.7353 -10.3024
rtoes -12.5164
lfemur -14.349 -7.92942 -17.8373
ltibia 22.6535
lfoot -21.1681 19.2842
ltoes 1.59029
1991
root 2.16306 15.706 7.52841 14.8754 3.59865 -2.62254
lowerback -1.4406 0.685456 1.92682
upperback -6.39669 1.0268 1.28173
thorax -5.80859 0.452756 0.214937
lowerneck -13.2207 -1.11159 6.1029
upperneck 27.2054 -2.9501 -0.649485
head 10.8619 -0.788614 -1.65945
rclavicle 6.94504e-015 -3.97569e-015
rhumerus -40.4205 25.3078 -98.4531
rradius 79.2059
rwrist -25.7477
rhand -0.877061 -10.1726
rfingers 7.12502
rthumb 24.75 -38.5914
lclavicle 6.94504e-015 -3.97569e-015
lhumerus -45.0564 -39.8396 109.274
lradius 111.979
lwrist 4.85273
lhand -21.8852 10.2979
lfingers 7.12502
lthumb 4.51958 40.2297
rfemur -28.7704 -4.67388 16.6225
rtibia 38.9655
rfoot -16.2725 -10.0464
rtoes -12.5307
lfemur -14.8535 -7.87256 -17.8521
ltibia 23.1857
lfoot -21.4614 19.3825
ltoes 2.01175
1992
root 2.18841 15.6998 7.49925 15.0089 3.27716 -2.71357
lowerback -1.56838 0.633691 2.00352
upperback -6.36053 0.954983 1.32049
thorax -5.6975 0.414787 0.216392
lowerneck -13.2964 -0.950436 6.31008
upperneck 26.8292 -2.69055 -0.933546
head 10.7371 -0.695571 -1.75919
rclavicle -1.40392e-015 1.07344e-014
rhumerus -42.0713 24.1005 -99.1691
rradius 78.1823
rwrist -25.7014
rhand -0.677403 -10.2102
rfingers 7.12502
rthumb 24.9414 -38.6026
lclavicle -1.40392e-015 1.07344e-014
lhumerus -46.8306 -38.689 109.838
lradius 111.499
lwrist 5.22034
lhand -21.7655 10.6841
lfingers 7.12502
lthumb 4.6352 40.6134
rfemur -28.3352 -5.1385 17.4148
rtibia 39.8803
rfoot -16.7247 -9.99838
rtoes -12.3537
lfemur -15.3071 -7.82359 -17.8751
ltibia 23.706
lfoot -21.7529 19.4699
ltoes 2.39141
1993
root 2.21313 15.6929 7.47294 15.1225 2.9586 -2.79805
lowerback -1.68315 0.583908 2.10686
upperback -6.32449 0.885363 1.33724
thorax -5.59347 0.375897 0.179604
lowerneck -13.3504 -0.791644 6.52547
upperneck 26.4429 -2.43985 -1.20609
head 10.6065 -0.604247 -1.85645
rclavicle -2.5345e-015 -2.22639e-014
rhumerus -43.6347 22.8493 -99.7674
rradius 77.3329
rwrist -25.5976
rhand -0.5536 -10.1543
rfingers 7.12502
rthumb 25.06 -38.5302
lclavicle -2.5345e-015 -2.22639e-014
lhumerus -48.5507 -37.5132 110.308
lradius 111.013
lwrist 5.61577
lhand -21.6553 11.0827
lfingers 7.12502
lthumb 4.74161 41.0097
rfemur -27.8142 -5.54146 18.1522
rtibia 40.5908
rfoot -17.0987 -10.1503
rtoes -12.0586
lfemur -15.7207 -7.76904 -17.9076
ltibia 24.215
lfoot -22.0482 19.5495
ltoes 2.74515
1994
root 2.23691 15.6854 7.44883 15.2259 2.64519 -2.87805
lowerback -1.78831 0.53474 2.22918
upperback -6.28946 0.816309 1.341
thorax -5.49595 0.335996 0.118379
lowerneck -13.3958 -0.634942 6.73259
upperneck 26.0547 -2.19526 -1.46456
head 10.476 -0.514455 -1.94757
rclavicle 2.88238e-015 3.97569e-016
rhumerus -45.1265 21.6015 -100.257
rradius 76.6939
rwrist -25.4399
rhand -0.490289 -9.9953
rfingers 7.12502
rthumb 25.1207 -38.3627
lclavicle 2.88238e-015 3.97569e-016
lhumerus -50.1877 -36.3289 110.684
lradius 110.534
lwrist 6.06527
lhand -21.559 11.4688
lfingers 7.12502
lthumb 4.83456 41.3936
rfemur -27.2187 -5.87688 18.8398
rtibia 41.0807
rfoot -17.428 -10.471
rtoes -11.7566
lfemur -16.1104 -7.69575 -17.9447
ltibia 24.7155
lfoot -22.3421 19.6066
ltoes 3.05772
1995
root 2.25941 15.6774 7.42642 15.3365 2.31647 -2.95654
lowerback -1.89397 0.493738 2.36258
upperback -6.25671 0.757628 1.3348
thorax -5.40056 0.30053 0.0400851
lowerneck -13.4572 -0.478709 6.92498
upperneck 25.676 -1.95523 -1.70802
head 10.3543 -0.425635 -2.03149
rclavicle -2.07481e-015 -9.54166e-015
rhumerus -46.5483 20.4063 -100.656
rradius 76.2681
rwrist -25.2551
rhand -0.449492 -9.75026
rfingers 7.12502
rthumb 25.1598 -38.1122
lclavicle -2.07481e-015 -9.54166e-015
lhumerus -51.7226 -35.155 110.965
lradius 110.076
lwrist 6.57794
lhand -21.4731 11.8137
lfingers 7.12502
lthumb 4.91755 41.7366
rfemur -26.5778 -6.12831 19.4823
rtibia 41.3443
rfoot -17.7544 -10.9197
rtoes -11.5241
lfemur -16.4974 -7.58878 -17.9829
ltibia 25.212
lfoot -22.6372 19.6424
ltoes 3.36661
1996
root 2.28055 15.6689 7.40577 15.4569 1.96578 -3.03274
lowerback -2.00965 0.460155 2.49863
upperback -6.22254 0.707872 1.32219
thorax -5.29807 0.269427 -0.0466733
lowerneck -13.5382 -0.318532 7.10859
upperneck 25.3089 -1.7124 -1.94696
head 10.243 -0.335082 -2.11212
rclavicle -2.98798e-015 -4.96962e-015
rhumerus -47.8888 19.3206 -100.99
rradius 76.0243
rwrist -25.0946
rhand -0.443991 -9.41008
rfingers 7.12502
rthumb 25.165 -37.7712
lclavicle -2.98798e-015 -4.96962e-015
lhumerus -53.1427 -33.9868 111.144
lradius 109.658
lwrist 7.12488
lhand -21.398 12.0817
lfingers 7.12502
lthumb 4.9901 42.0029
rfemur -25.9028 -6.3041 20.0805
rtibia 41.3853
rfoot -18.1252 -11.4553
rtoes -11.3788
lfemur -16.8854 -7.4447 -18.0244
ltibia 25.7099
lfoot -22.9363 19.6597
ltoes 3.66423
1997
root 2.3006 15.6595 7.3869 15.5799 1.5837 -3.10625
lowerback -2.12594 0.434097 2.63564
upperback -6.19246 0.667714 1.30524
thorax -5.19971 0.243036 -0.138864
lowerneck -13.6155 -0.152078 7.28269
upperneck 24.9533 -1.46051 -2.18423
head 10.1375 -0.240355 -2.18937
rclavicle 8.82107e-016 -1.49089e-015
rhumerus -49.1624 18.376 -101.288
rradius 75.9334
rwrist -25.0313
rhand -0.448812 -9.00367
rfingers 7.12502
rthumb 25.1604 -37.3655
lclavicle 8.82107e-016 -1.49089e-015
lhumerus -54.4679 -32.8068 111.233
lradius 109.302
lwrist 7.64722
lhand -21.3053 12.2505
lfingers 7.12502
lthumb 5.07958 42.1697
rfemur -25.1981 -6.41515 20.6314
rtibia 41.214
rfoot -18.5506 -12.044
rtoes -11.354
lfemur -17.2655 -7.27344 -18.0738
ltibia 26.2106
lfoot -23.2442 19.6774
ltoes 3.95661
1998
root 2.31952 15.6491 7.36958 15.7037 1.16418 -3.17298
lowerback -2.24563 0.415245 2.76407
upperback -6.15988 0.636235 1.28154
thorax -5.09686 0.221418 -0.233552
lowerneck -13.6998 0.0250679 7.46685
upperneck 24.6107 -1.19628 -2.43056
head 10.0403 -0.139325 -2.27009
rclavicle -2.40405e-015 -8.94531e-016
rhumerus -50.336 17.5916 -101.565
rradius 75.9556
rwrist -25.1506
rhand -0.444045 -8.58668
rfingers 7.12502
rthumb 25.165 -36.9479
lclavicle -2.40405e-015 -8.94531e-016
lhumerus -55.6869 -31.6011 111.214
lradius 109.025
lwrist 8.06901
lhand -21.1384 12.3235
lfingers 7.12502
lthumb 5.24074 42.2387
rfemur -24.4778 -6.46934 21.13
rtibia 40.846
rfoot -19.0319 -12.68
rtoes -11.3848
lfemur -17.634 -7.07926 -18.1365
ltibia 26.7105
lfoot -23.5573 19.7073
ltoes 4.24187
1999
root 2.33779 15.6378 7.35392 15.8175 0.722913 -3.22402
lowerback -2.36018 0.39465 2.88472
upperback -6.13153 0.60187 1.24682
thorax -5.00168 0.198461 -0.335373
lowerneck -13.7516 0.21305 7.67176
upperneck 24.276 -0.918199 -2.68784
head 9.94228 -0.0306297 -2.35613
rclavicle 2.98798e-015 1.8487e-014
rhumerus -51.411 16.9644 -101.842
rradius 76.0683
rwrist -25.5154
rhand -0.321457 -8.33244
rfingers 7.12502
rthumb 25.2824 -36.6771
lclavicle 2.98798e-015 1.8487e-014
lhumerus -56.8254 -30.358 111.095
lradius 108.835
lwrist 8.32574
lhand -20.8981 12.2976
lfingers 7.12502
lthumb 5.47272 42.2069
rfemur -23.7409 -6.49351 21.5667
rtibia 40.2978
rfoot -19.5599 -13.3659
rtoes -11.3881
lfemur -17.9783 -6.87763 -18.2223
ltibia 27.2033
lfoot -23.8685 19.7552
ltoes 4.49758
2000
root 2.35571 15.6254 7.3395 15.9067 0.262284 -3.25603
lowerback -2.45164 0.369557 2.99497
upperback -6.10476 0.561674 1.2007
thorax -4.92165 0.172709 -0.443327
lowerneck -13.7716 0.412667 7.90248
upperneck 23.9554 -0.626037 -2.95749
head 9.84601 0.0863238 -2.44902
rclavicle 5.08143e-015 1.98785e-015
rhumerus -52.3691 16.4875 -102.12
rradius 76.2515
rwrist -26.149
rhand -0.164875 -8.17539
rfingers 7.12502
rthumb 25.4324 -36.4987
lclavicle 5.08143e-015 1.98785e-015
lhumerus -57.8794 -29.0851 110.878
lradius 108.731
lwrist 8.38456
lhand -20.5846 12.2054
lfingers 7.12502
lthumb 5.77542 42.1067
rfemur -22.9875 -6.48832 21.9344
rtibia 39.5844
rfoot -20.109 -14.1152
rtoes -11.2887
lfemur -18.2805 -6.68318 -18.3361
ltibia 27.6794
lfoot -24.1723 19.8343
ltoes 4.73478
